<svg width="130" height="120" viewBox="0 0 130 120" fill="none" xmlns="http://www.w3.org/2000/svg">
<path d="M120 110L42 110C30.799 110 25.1984 110 20.9202 107.82C17.157 105.903 14.0973 102.843 12.1799 99.0798C10 94.8016 10 89.201 10 78L10 42C10 30.7989 10 25.1984 12.1799 20.9202C14.0973 17.1569 17.157 14.0973 20.9202 12.1799C25.1984 9.99999 30.799 9.99999 42 9.99999L88 10C99.2011 10 104.802 10 109.08 12.1799C112.843 14.0973 115.903 17.157 117.82 20.9202C120 25.1984 120 30.799 120 42L120 110Z" fill="#F2EAE2"/>
<path d="M65 86C76.0457 86 85 77.0457 85 66C85 54.9543 76.0457 46 65 46C53.9543 46 45 54.9543 45 66C45 77.0457 53.9543 86 65 86Z" fill="#FFD983"/>
<path d="M56.6667 59.3333C58.8145 59.3333 60.5556 57.5922 60.5556 55.4444C60.5556 53.2967 58.8145 51.5556 56.6667 51.5556C54.5189 51.5556 52.7778 53.2967 52.7778 55.4444C52.7778 57.5922 54.5189 59.3333 56.6667 59.3333Z" fill="#FFCC4D"/>
<path d="M67.2222 68.2222C69.0632 68.2222 70.5556 66.7298 70.5556 64.8889C70.5556 63.0479 69.0632 61.5556 67.2222 61.5556C65.3813 61.5556 63.8889 63.0479 63.8889 64.8889C63.8889 66.7298 65.3813 68.2222 67.2222 68.2222Z" fill="#FFCC4D"/>
<path d="M72.2223 81.5555C74.37 81.5555 76.1112 79.8144 76.1112 77.6667C76.1112 75.5189 74.37 73.7778 72.2223 73.7778C70.0745 73.7778 68.3334 75.5189 68.3334 77.6667C68.3334 79.8144 70.0745 81.5555 72.2223 81.5555Z" fill="#FFCC4D"/>
<path d="M69.4445 53.7778C70.6718 53.7778 71.6667 52.7829 71.6667 51.5556C71.6667 50.3283 70.6718 49.3333 69.4445 49.3333C68.2172 49.3333 67.2223 50.3283 67.2223 51.5556C67.2223 52.7829 68.2172 53.7778 69.4445 53.7778Z" fill="#FFCC4D"/>
<path d="M48.3334 67.1111C48.9471 67.1111 49.4445 66.6136 49.4445 66C49.4445 65.3863 48.9471 64.8889 48.3334 64.8889C47.7198 64.8889 47.2223 65.3863 47.2223 66C47.2223 66.6136 47.7198 67.1111 48.3334 67.1111Z" fill="#FFCC4D"/>
<path d="M78.3333 57.1111C78.9469 57.1111 79.4444 56.6136 79.4444 56C79.4444 55.3863 78.9469 54.8889 78.3333 54.8889C77.7196 54.8889 77.2222 55.3863 77.2222 56C77.2222 56.6136 77.7196 57.1111 78.3333 57.1111Z" fill="#FFCC4D"/>
<path d="M61.6667 81.5556C62.2804 81.5556 62.7778 81.0581 62.7778 80.4445C62.7778 79.8308 62.2804 79.3333 61.6667 79.3333C61.0531 79.3333 60.5556 79.8308 60.5556 80.4445C60.5556 81.0581 61.0531 81.5556 61.6667 81.5556Z" fill="#FFCC4D"/>
<path d="M80.5556 69.3333C81.7829 69.3333 82.7778 68.3384 82.7778 67.1111C82.7778 65.8838 81.7829 64.8889 80.5556 64.8889C79.3283 64.8889 78.3334 65.8838 78.3334 67.1111C78.3334 68.3384 79.3283 69.3333 80.5556 69.3333Z" fill="#FFCC4D"/>
<path d="M56.1111 73.7778C57.3384 73.7778 58.3334 72.7829 58.3334 71.5556C58.3334 70.3283 57.3384 69.3333 56.1111 69.3333C54.8838 69.3333 53.8889 70.3283 53.8889 71.5556C53.8889 72.7829 54.8838 73.7778 56.1111 73.7778Z" fill="#FFCC4D"/>
<path d="M33.94 24.5H36.306V36.456H33.94V30.772H31.56V28.56H33.94V24.5ZM30.132 26.95C30.104 28 30.006 28.98 29.852 29.876L33.338 34.482L31.42 35.812L29.04 32.536C28.088 34.678 26.576 35.882 24.77 35.896V33.516C26.52 33.32 27.668 30.786 27.752 26.95H25.106V24.78H32.68V26.95H30.132ZM47.4488 24.5H49.7728V32.158H47.4488V29.428H43.8368V27.608H47.4488V26.992H43.8368V25.172H47.4488V24.5ZM46.2868 31.654C45.6708 31.85 44.5508 31.962 43.4308 31.962H38.4888V24.57H40.8828V30.044H43.5288C44.6068 30.044 45.6568 29.96 46.2868 29.764V31.654ZM39.0208 34.538V32.578H49.7728V36.596H47.3648V34.538H39.0208Z" fill="black"/>
<path d="M109 92C108.691 92 108.394 92.1229 108.175 92.3417C107.956 92.5605 107.833 92.8572 107.833 93.1667V97.8333H103.167C102.857 97.8333 102.561 97.9562 102.342 98.175C102.123 98.3938 102 98.6906 102 99C102 99.3094 102.123 99.6062 102.342 99.825C102.561 100.044 102.857 100.167 103.167 100.167H107.833V104.833C107.833 105.143 107.956 105.439 108.175 105.658C108.394 105.877 108.691 106 109 106C109.309 106 109.606 105.877 109.825 105.658C110.044 105.439 110.167 105.143 110.167 104.833V100.167H114.833C115.143 100.167 115.439 100.044 115.658 99.825C115.877 99.6062 116 99.3094 116 99C116 98.6906 115.877 98.3938 115.658 98.175C115.439 97.9562 115.143 97.8333 114.833 97.8333H110.167V93.1667C110.167 92.8572 110.044 92.5605 109.825 92.3417C109.606 92.1229 109.309 92 109 92Z" fill="black"/>
</svg>
